<svg width="15" height="15" viewBox="0 0 15 15" fill="none" xmlns="http://www.w3.org/2000/svg">
    <path
        d="M14.0983 0.00024613C13.8655 0.00573986 13.6444 0.103157 13.4832 0.271204L7.4998 6.25464L1.51636 0.271204C1.43418 0.186722 1.33588 0.119591 1.22728 0.0737875C1.11868 0.0279839 1.00199 0.00443889 0.884129 0.00454705C0.708977 0.00476398 0.537864 0.0571898 0.392652 0.155127C0.247439 0.253065 0.134718 0.392068 0.068889 0.554379C0.00305971 0.716691 -0.0128896 0.894942 0.0230786 1.06636C0.0590468 1.23778 0.1453 1.39459 0.270819 1.51675L6.25425 7.50019L0.270819 13.4836C0.186282 13.5648 0.11879 13.662 0.0722955 13.7696C0.0258009 13.8772 0.00123803 13.9929 4.56053e-05 14.1101C-0.00114681 14.2273 0.021055 14.3435 0.0653511 14.452C0.109647 14.5605 0.175147 14.6591 0.258014 14.742C0.340882 14.8248 0.439451 14.8903 0.547949 14.9346C0.656447 14.9789 0.772693 15.0011 0.889879 15C1.00707 14.9988 1.12284 14.9742 1.23041 14.9277C1.33798 14.8812 1.4352 14.8137 1.51636 14.7292L7.4998 8.74574L13.4832 14.7292C13.5644 14.8137 13.6616 14.8812 13.7692 14.9277C13.8768 14.9742 13.9925 14.9988 14.1097 15C14.2269 15.0011 14.3432 14.9789 14.4517 14.9346C14.5602 14.8904 14.6587 14.8249 14.7416 14.742C14.8245 14.6591 14.89 14.5605 14.9342 14.452C14.9785 14.3436 15.0007 14.2273 14.9996 14.1101C14.9984 13.9929 14.9738 13.8772 14.9273 13.7696C14.8808 13.662 14.8133 13.5648 14.7288 13.4836L8.74534 7.50019L14.7288 1.51675C14.857 1.39385 14.945 1.23507 14.9813 1.06126C15.0177 0.887441 15.0007 0.706695 14.9325 0.542725C14.8643 0.378755 14.7482 0.239217 14.5993 0.14241C14.4504 0.0456038 14.2758 -0.00395052 14.0983 0.00024613Z"
        fill="black" />
</svg>
    