<svg width="20" height="20" viewBox="0 0 20 20" fill="none" xmlns="http://www.w3.org/2000/svg">
    <path
        d="M18.7019 0.0852874C18.3915 0.0926124 18.0967 0.222502 17.8818 0.446565L9.90392 8.42449L1.926 0.446565C1.81642 0.333922 1.68535 0.244414 1.54056 0.183343C1.39576 0.122271 1.24018 0.0908778 1.08303 0.091022C0.849489 0.0913112 0.621339 0.161212 0.427722 0.291796C0.234105 0.422379 0.0838108 0.607716 -0.00396165 0.824132C-0.0917341 1.04055 -0.113 1.27822 -0.0650422 1.50678C-0.0170846 1.73534 0.0979192 1.94441 0.265278 2.10729L8.24319 10.0852L0.265278 18.0631C0.152563 18.1714 0.0625733 18.301 0.000580356 18.4444C-0.0614126 18.5878 -0.094163 18.7422 -0.0957529 18.8985C-0.0973428 19.0547 -0.0677403 19.2097 -0.00867894 19.3544C0.0503825 19.499 0.137716 19.6304 0.248205 19.7409C0.358695 19.8514 0.490121 19.9388 0.634785 19.9978C0.779449 20.0569 0.934444 20.0865 1.09069 20.0849C1.24694 20.0833 1.4013 20.0506 1.54473 19.9886C1.68816 19.9266 1.81779 19.8366 1.926 19.7239L9.90392 11.7459L17.8818 19.7239C17.9901 19.8366 18.1197 19.9266 18.2631 19.9886C18.4065 20.0506 18.5609 20.0833 18.7171 20.0849C18.8734 20.0865 19.0284 20.0569 19.1731 19.9978C19.3177 19.9388 19.4491 19.8514 19.5596 19.7409C19.6701 19.6305 19.7575 19.499 19.8165 19.3544C19.8756 19.2097 19.9052 19.0547 19.9036 18.8985C19.902 18.7422 19.8693 18.5878 19.8073 18.4444C19.7453 18.301 19.6553 18.1714 19.5426 18.0631L11.5646 10.0852L19.5426 2.10729C19.7135 1.94342 19.8308 1.73172 19.8793 1.49997C19.9278 1.26821 19.9051 1.02722 19.8142 0.808593C19.7233 0.589966 19.5684 0.403915 19.3699 0.27484C19.1714 0.145764 18.9386 0.0796919 18.7019 0.0852874Z"
        fill="black" />
</svg>
    