<svg width="31" height="8" viewBox="0 0 31 8" fill="none" xmlns="http://www.w3.org/2000/svg">
	<path
		d="M6.37496 3.99998C6.37496 5.72586 4.97586 7.12496 3.24998 7.12496C1.5241 7.12496 0.125 5.72586 0.125 3.99998C0.125 2.2741 1.5241 0.875 3.24998 0.875C4.97586 0.875 6.37496 2.2741 6.37496 3.99998Z"
		fill="black" />
	<path
		d="M18.25 3.99998C18.25 5.72586 16.8509 7.12496 15.125 7.12496C13.3991 7.12496 12 5.72586 12 3.99998C12 2.2741 13.3991 0.875 15.125 0.875C16.8509 0.875 18.25 2.2741 18.25 3.99998Z"
		fill="black" />
	<path
		d="M30.125 3.99998C30.125 5.72586 28.7259 7.12496 27 7.12496C25.2741 7.12496 23.875 5.72586 23.875 3.99998C23.875 2.2741 25.2741 0.875 27 0.875C28.7259 0.875 30.125 2.2741 30.125 3.99998Z"
		fill="black" />
</svg>
	